<?xml version="1.0" encoding="UTF-8" standalone="no"?>
<!-- Created with Inkscape (http://www.inkscape.org/) -->

<svg
   width="26.902298mm"
   height="26.90229mm"
   viewBox="0 0 26.902298 26.90229"
   version="1.1"
   id="svg1"
   xml:space="preserve"
   xmlns="http://www.w3.org/2000/svg"
   xmlns:svg="http://www.w3.org/2000/svg"><defs
     id="defs1" /><g
     id="layer1"
     transform="translate(-167.93291,-46.559403)"><rect
       style="fill:none;fill-opacity:1;stroke:#ffffff;stroke-width:1.05833;stroke-dasharray:none;stroke-opacity:1"
       id="rect12"
       width="25.843962"
       height="25.843962"
       x="168.46207"
       y="47.088566"
       ry="12.921981" /><path
       id="path12"
       style="font-variation-settings:normal;vector-effect:none;fill:none;fill-opacity:1;stroke:#ffffff;stroke-width:0.888238;stroke-linecap:butt;stroke-linejoin:miter;stroke-miterlimit:4;stroke-dasharray:none;stroke-dashoffset:0;stroke-opacity:1;-inkscape-stroke:none;paint-order:normal;stop-color:#000000"
       d="m 185.36525,50.817073 c -2.68773,-0.01636 -2.7216,3.081811 -2.7216,3.081811 0,0 2.42366,-0.102069 3.13761,-3.056199 -0.14533,-0.01658 -0.28383,-0.02482 -0.41601,-0.0256 z m -3.97354,4.316135 c -1.53206,-7.9e-5 -2.48497,1.315542 -2.97889,2.773964 l -1.88225,5.557768 c -1.38051,4.076309 2.20879,5.739219 4.86114,5.739127 2.65225,-3e-5 6.19229,-1.807856 4.8609,-5.739127 l -0.13402,-0.395437 a 3.0077465,3.1869433 0 0 1 -2.69163,-3.162992 3.0077465,3.1869433 0 0 1 0.86267,-2.22279 c -0.51357,-1.366431 -1.44477,-2.550466 -2.89792,-2.550513 z" /></g></svg>
